<?xml version="1.0" encoding="UTF-8"?>
<!DOCTYPE svg PUBLIC "-//W3C//DTD SVG 1.1//EN" "http://www.w3.org/Graphics/SVG/1.1/DTD/svg11.dtd">
<svg xmlns="http://www.w3.org/2000/svg" version="1.1" width="512px" height="512px" style="shape-rendering:geometricPrecision; text-rendering:geometricPrecision; image-rendering:optimizeQuality; fill-rule:evenodd; clip-rule:evenodd" xmlns:xlink="http://www.w3.org/1999/xlink">
<g><path style="opacity:0.996" fill="#5ad0ff" d="M 71.5,-0.5 C 75.5,-0.5 79.5,-0.5 83.5,-0.5C 65.2547,32.9977 46.2547,65.9977 26.5,98.5C 26.5,85.8333 26.5,73.1667 26.5,60.5C 37.6691,42.1669 48.3357,23.5002 58.5,4.5C 62.6255,2.23691 66.9588,0.570243 71.5,-0.5 Z"/></g>
<g><path style="opacity:0.997" fill="#5ccdff" d="M 83.5,-0.5 C 85.8333,-0.5 88.1667,-0.5 90.5,-0.5C 69.9213,36.998 48.588,73.998 26.5,110.5C 26.5,106.5 26.5,102.5 26.5,98.5C 46.2547,65.9977 65.2547,32.9977 83.5,-0.5 Z"/></g>
<g><path style="opacity:0.997" fill="#60caff" d="M 90.5,-0.5 C 91.1667,-0.5 91.8333,-0.5 92.5,-0.5C 99.1102,1.37426 105.444,4.04093 111.5,7.5C 83.3451,56.4726 55.1785,105.473 27,154.5C 26.5001,139.837 26.3334,125.17 26.5,110.5C 48.588,73.998 69.9213,36.998 90.5,-0.5 Z"/></g>
<g><path style="opacity:0.998" fill="#61c6ff" d="M 111.5,7.5 C 112.71,7.93205 113.71,8.59872 114.5,9.5C 85.3234,61.1957 55.6568,112.529 25.5,163.5C 25.1682,126.663 25.5015,89.9962 26.5,53.5C 26.5,55.8333 26.5,58.1667 26.5,60.5C 26.5,73.1667 26.5,85.8333 26.5,98.5C 26.5,102.5 26.5,106.5 26.5,110.5C 26.3334,125.17 26.5001,139.837 27,154.5C 55.1785,105.473 83.3451,56.4726 111.5,7.5 Z"/></g>
<g><path style="opacity:0.912" fill="#56d5ff" d="M 58.5,4.5 C 48.3357,23.5002 37.6691,42.1669 26.5,60.5C 26.5,58.1667 26.5,55.8333 26.5,53.5C 26.9092,30.3221 37.5758,13.9888 58.5,4.5 Z"/></g>
<g><path style="opacity:0.998" fill="#66c4ff" d="M 114.5,9.5 C 120.367,12.5961 126.033,15.9294 131.5,19.5C 97.2763,79.6084 62.7763,139.608 28,199.5C 26.5753,206.385 26.0753,213.385 26.5,220.5C 26.5,230.167 26.5,239.833 26.5,249.5C 26.5,256.833 26.5,264.167 26.5,271.5C 26.5,272.5 26.5,273.5 26.5,274.5C 26.1667,274.5 25.8333,274.5 25.5,274.5C 25.5,237.5 25.5,200.5 25.5,163.5C 55.6568,112.529 85.3234,61.1957 114.5,9.5 Z"/></g>
<g><path style="opacity:0.998" fill="#69c0ff" d="M 131.5,19.5 C 134.669,20.9166 137.669,22.5832 140.5,24.5C 102.864,90.1146 64.8636,155.448 26.5,220.5C 26.0753,213.385 26.5753,206.385 28,199.5C 62.7763,139.608 97.2763,79.6084 131.5,19.5 Z"/></g>
<g><path style="opacity:0.999" fill="#6cbdff" d="M 140.5,24.5 C 144.864,26.3437 148.864,28.677 152.5,31.5C 110.864,104.447 68.8638,177.114 26.5,249.5C 26.5,239.833 26.5,230.167 26.5,220.5C 64.8636,155.448 102.864,90.1146 140.5,24.5 Z"/></g>
<g><path style="opacity:0.999" fill="#6fbaff" d="M 152.5,31.5 C 156.201,33.0116 159.534,35.0116 162.5,37.5C 117.167,115.5 71.8333,193.5 26.5,271.5C 26.5,264.167 26.5,256.833 26.5,249.5C 68.8638,177.114 110.864,104.447 152.5,31.5 Z"/></g>
<g><path style="opacity:0.999" fill="#72b7ff" d="M 162.5,37.5 C 166.335,39.2495 170.001,41.2495 173.5,43.5C 124.737,128.033 75.7374,212.366 26.5,296.5C 26.5,289.167 26.5,281.833 26.5,274.5C 26.5,273.5 26.5,272.5 26.5,271.5C 71.8333,193.5 117.167,115.5 162.5,37.5 Z"/></g>
<g><path style="opacity:0.999" fill="#75b3ff" d="M 173.5,43.5 C 177.167,45.5 180.833,47.5 184.5,49.5C 132.071,140.699 79.4042,231.699 26.5,322.5C 26.5,313.833 26.5,305.167 26.5,296.5C 75.7374,212.366 124.737,128.033 173.5,43.5 Z"/></g>
<g><path style="opacity:0.999" fill="#78b0ff" d="M 184.5,49.5 C 188.5,51.8333 192.5,54.1667 196.5,56.5C 195.908,59.6907 194.741,62.6907 193,65.5C 137.414,161.003 82.0807,256.67 27,352.5C 26.5002,342.506 26.3335,332.506 26.5,322.5C 79.4042,231.699 132.071,140.699 184.5,49.5 Z"/></g>
<g><path style="opacity:0.999" fill="#7aadff" d="M 196.5,56.5 C 199.833,58.5 203.167,60.5 206.5,62.5C 146.678,166.139 86.8451,269.806 27,373.5C 26.5002,382.494 26.3336,391.494 26.5,400.5C 26.1667,400.5 25.8333,400.5 25.5,400.5C 25.5,358.5 25.5,316.5 25.5,274.5C 25.8333,274.5 26.1667,274.5 26.5,274.5C 26.5,281.833 26.5,289.167 26.5,296.5C 26.5,305.167 26.5,313.833 26.5,322.5C 26.3335,332.506 26.5002,342.506 27,352.5C 82.0807,256.67 137.414,161.003 193,65.5C 194.741,62.6907 195.908,59.6907 196.5,56.5 Z"/></g>
<g><path style="opacity:0.999" fill="#7eaaff" d="M 206.5,62.5 C 210.167,64.5 213.833,66.5 217.5,68.5C 154.354,179.458 90.6874,290.124 26.5,400.5C 26.3336,391.494 26.5002,382.494 27,373.5C 86.8451,269.806 146.678,166.139 206.5,62.5 Z"/></g>
<g><path style="opacity:0.999" fill="#81a6ff" d="M 217.5,68.5 C 222.543,71.015 227.21,74.015 231.5,77.5C 164.196,195.438 96.3622,313.105 28,430.5C 26.5962,436.044 26.0962,441.71 26.5,447.5C 26.5,450.833 26.5,454.167 26.5,457.5C 25.503,438.674 25.1697,419.674 25.5,400.5C 25.8333,400.5 26.1667,400.5 26.5,400.5C 90.6874,290.124 154.354,179.458 217.5,68.5 Z"/></g>
<g><path style="opacity:1" fill="#84a3ff" d="M 231.5,77.5 C 234.331,78.0787 236.664,79.412 238.5,81.5C 168.197,203.781 97.5304,325.781 26.5,447.5C 26.0962,441.71 26.5962,436.044 28,430.5C 96.3622,313.105 164.196,195.438 231.5,77.5 Z"/></g>
<g><path style="opacity:0.998" fill="#87a0ff" d="M 238.5,81.5 C 243.632,83.8995 248.632,86.5662 253.5,89.5C 180.029,218.438 106.029,347.105 31.5,475.5C 31.0431,476.298 30.3764,476.631 29.5,476.5C 27.1226,470.403 26.1226,464.07 26.5,457.5C 26.5,454.167 26.5,450.833 26.5,447.5C 97.5304,325.781 168.197,203.781 238.5,81.5 Z"/></g>
<g><path style="opacity:0.999" fill="#8a9dff" d="M 253.5,89.5 C 255.332,90.2485 256.999,91.2485 258.5,92.5C 184.273,223.287 109.273,353.621 33.5,483.5C 31.9291,481.365 30.5957,479.032 29.5,476.5C 30.3764,476.631 31.0431,476.298 31.5,475.5C 106.029,347.105 180.029,218.438 253.5,89.5 Z"/></g>
<g><path style="opacity:0.999" fill="#8d9aff" d="M 258.5,92.5 C 264.367,95.5961 270.033,98.9294 275.5,102.5C 200.529,233.772 125.029,364.772 49,495.5C 47.9914,497.025 47.4914,498.692 47.5,500.5C 41.3288,496.003 36.6622,490.336 33.5,483.5C 109.273,353.621 184.273,223.287 258.5,92.5 Z"/></g>
<g><path style="opacity:0.999" fill="#9096ff" d="M 275.5,102.5 C 278.54,103.68 281.206,105.347 283.5,107.5C 207.774,237.94 132.274,368.607 57,499.5C 56.1237,501.635 54.6237,502.969 52.5,503.5C 50.6675,502.752 49.0009,501.752 47.5,500.5C 47.4914,498.692 47.9914,497.025 49,495.5C 125.029,364.772 200.529,233.772 275.5,102.5 Z"/></g>
<g><path style="opacity:0.999" fill="#9393ff" d="M 283.5,107.5 C 288.5,109.664 293.167,112.331 297.5,115.5C 225.255,241.595 152.755,367.595 80,493.5C 76.6257,499.615 72.7923,505.282 68.5,510.5C 62.6294,509.228 57.2961,506.894 52.5,503.5C 54.6237,502.969 56.1237,501.635 57,499.5C 132.274,368.607 207.774,237.94 283.5,107.5 Z"/></g>
<g><path style="opacity:0.998" fill="#9690ff" d="M 297.5,115.5 C 300.331,116.079 302.664,117.412 304.5,119.5C 228.343,249.804 152.677,380.471 77.5,511.5C 75.5,511.5 73.5,511.5 71.5,511.5C 70.791,510.596 69.791,510.263 68.5,510.5C 72.7923,505.282 76.6257,499.615 80,493.5C 152.755,367.595 225.255,241.595 297.5,115.5 Z"/></g>
<g><path style="opacity:0.998" fill="#998cff" d="M 304.5,119.5 C 311.461,122.647 318.127,126.313 324.5,130.5C 253.224,254.884 181.557,379.051 109.5,503C 109.728,503.399 110.062,503.565 110.5,503.5C 104.94,507.132 98.9397,509.799 92.5,511.5C 87.5,511.5 82.5,511.5 77.5,511.5C 152.677,380.471 228.343,249.804 304.5,119.5 Z"/></g>
<g><path style="opacity:0.998" fill="#9f86ff" d="M 324.5,130.5 C 331.451,134.137 338.118,138.137 344.5,142.5C 280.261,255.407 215.594,368.074 150.5,480.5C 137.501,488.669 124.168,496.335 110.5,503.5C 110.062,503.565 109.728,503.399 109.5,503C 181.557,379.051 253.224,254.884 324.5,130.5 Z"/></g>
<g><path style="opacity:0.998" fill="#a580ff" d="M 344.5,142.5 C 352.337,146.584 360.003,150.917 367.5,155.5C 309.902,255.031 252.569,354.698 195.5,454.5C 180.998,463.921 165.998,472.588 150.5,480.5C 215.594,368.074 280.261,255.407 344.5,142.5 Z"/></g>
<g><path style="opacity:0.997" fill="#ab79ff" d="M 367.5,155.5 C 375.199,159.344 382.532,163.678 389.5,168.5C 339.833,255.167 290.167,341.833 240.5,428.5C 225.998,437.921 210.998,446.588 195.5,454.5C 252.569,354.698 309.902,255.031 367.5,155.5 Z"/></g>
<g><path style="opacity:0.996" fill="#b173ff" d="M 389.5,168.5 C 397.337,172.584 405.003,176.917 412.5,181.5C 411.325,181.281 410.325,181.614 409.5,182.5C 366.634,256.204 323.967,330.037 281.5,404C 281.728,404.399 282.062,404.565 282.5,404.5C 268.834,413.002 254.834,421.002 240.5,428.5C 290.167,341.833 339.833,255.167 389.5,168.5 Z"/></g>
<g><path style="opacity:0.995" fill="#b76dff" d="M 412.5,181.5 C 418.5,184.833 424.5,188.167 430.5,191.5C 395.427,254.806 359.427,317.639 322.5,380C 322.728,380.399 323.062,380.565 323.5,380.5C 310.033,388.737 296.366,396.737 282.5,404.5C 282.062,404.565 281.728,404.399 281.5,404C 323.967,330.037 366.634,256.204 409.5,182.5C 410.325,181.614 411.325,181.281 412.5,181.5 Z"/></g>
<g><path style="opacity:0.996" fill="#ba69ff" d="M 430.5,191.5 C 432.537,192.846 434.537,194.18 436.5,195.5C 403.174,254.976 369.174,314.143 334.5,373C 334.728,373.399 335.062,373.565 335.5,373.5C 331.836,376.335 327.836,378.668 323.5,380.5C 323.062,380.565 322.728,380.399 322.5,380C 359.427,317.639 395.427,254.806 430.5,191.5 Z"/></g>
<g><path style="opacity:0.994" fill="#bd66ff" d="M 436.5,195.5 C 443.005,198.917 449.338,202.584 455.5,206.5C 427.274,254.607 399.274,302.94 371.5,351.5C 371.624,352.107 371.957,352.44 372.5,352.5C 360.428,359.892 348.095,366.892 335.5,373.5C 335.062,373.565 334.728,373.399 334.5,373C 369.174,314.143 403.174,254.976 436.5,195.5 Z"/></g>
<g><path style="opacity:0.993" fill="#c360ff" d="M 455.5,206.5 C 462.673,209.999 468.673,214.999 473.5,221.5C 453.588,256.595 433.422,291.595 413,326.5C 412.308,327.437 412.475,328.103 413.5,328.5C 400.362,337.242 386.695,345.242 372.5,352.5C 371.957,352.44 371.624,352.107 371.5,351.5C 399.274,302.94 427.274,254.607 455.5,206.5 Z"/></g>
<g><path style="opacity:0.986" fill="#c95aff" d="M 473.5,221.5 C 484.99,237.68 487.823,255.347 482,274.5C 478.17,284.646 472.003,293.146 463.5,300C 447.185,310.156 430.518,319.656 413.5,328.5C 412.475,328.103 412.308,327.437 413,326.5C 433.422,291.595 453.588,256.595 473.5,221.5 Z"/></g>
</svg>
